<?xml version="1.0" encoding="iso-8859-1"?>
<!-- Generator: Adobe Illustrator 19.0.0, SVG Export Plug-In . SVG Version: 6.00 Build 0)  -->
<svg xmlns="http://www.w3.org/2000/svg" xmlns:xlink="http://www.w3.org/1999/xlink" version="1.1" id="Capa_1" x="0px" y="0px" viewBox="0 0 480.003 480.003" style="enable-background:new 0 0 480.003 480.003;" xml:space="preserve" width="512px" height="512px">
<g>
	<g>
		<path d="M409.036,336.121L298.38,284.049c22.824-17.576,37.624-45.08,37.624-76.048c0-16.44-4.288-32.52-12.416-46.888    c4.896-6.44,8.848-13.728,11.64-21.688l14.44-28.888l20.856-6.952c3.28-1.088,5.48-4.136,5.48-7.584v-32    c0-3.448-2.2-6.496-5.472-7.592l-22.984-7.664L276.435,1.337c-1.304-0.864-2.856-1.336-4.432-1.336h-64    c-1.736,0-3.416,0.56-4.8,1.6l-62.712,47.024l-30.424,7.616c-3.568,0.888-6.064,4.088-6.064,7.76v32    c0,3.448,2.2,6.496,5.472,7.592l20.856,6.952l14.368,28.736c2.768,8.032,6.744,15.376,11.688,21.888    c-8.104,14.352-12.384,30.416-12.384,46.832c0,30.968,14.8,58.472,37.624,76.04l-49.976,23.52l-6.136,2.888l-54.544,25.664    c-13.952,6.568-22.968,20.776-22.968,36.2v99.688c0,4.416,3.576,8,8,8h262.064h64.728h41.208c4.424,0,8-3.584,8-8v-99.688    C432.003,356.897,422.987,342.681,409.036,336.121z M143.148,100.425c-0.952-1.896-2.616-3.336-4.624-4.008l-18.52-6.184V70.241    l25.936-6.488c1.04-0.256,2.008-0.72,2.856-1.36l61.872-46.392h58.912l69.984,46.656c0.6,0.392,1.24,0.704,1.912,0.936    l18.528,6.176v20.464l-18.528,6.176c-2.008,0.672-3.672,2.112-4.624,4.008l-13.792,27.584h-72.808l28-35    c0.72-0.896,1.232-1.944,1.504-3.056l8-32c0.6-2.392,0.064-4.92-1.456-6.864c-1.52-1.944-3.832-3.08-6.296-3.08h-22.112    l-14.312-7.16c-2.248-1.128-4.904-1.128-7.16,0l-14.304,7.16h-22.112c-2.464,0-4.792,1.136-6.304,3.08    c-1.512,1.944-2.056,4.472-1.456,6.864l8,32c0.272,1.112,0.792,2.16,1.504,3.056l28,35H156.94L143.148,100.425z M315.803,144.001    c-2.104,3.8-4.68,7.24-7.472,10.464c-0.176,0.168-0.384,0.312-0.544,0.496c-7.184,8.088-16.216,14.048-26.112,17.528    c-0.512,0.176-1.008,0.368-1.52,0.536c-1.424,0.456-2.864,0.832-4.32,1.184c-1.216,0.288-2.448,0.544-3.688,0.76    c-1.072,0.192-2.136,0.392-3.216,0.528c-2.48,0.296-4.968,0.504-7.496,0.504h-42.856c-2.536,0-5.032-0.216-7.504-0.512    c-1.08-0.136-2.152-0.336-3.224-0.528c-1.232-0.216-2.456-0.472-3.672-0.76c-1.472-0.36-2.944-0.736-4.392-1.208    c-0.448-0.144-0.888-0.312-1.328-0.464c-9.944-3.472-19.016-9.448-26.224-17.568c-0.24-0.272-0.52-0.48-0.792-0.712    c-2.72-3.168-5.232-6.536-7.28-10.248H315.803z M240.003,115.193l-24.664-30.832l-5.088-20.36h13.752    c1.24,0,2.472-0.288,3.576-0.84l12.424-6.216l12.424,6.208c1.104,0.56,2.336,0.848,3.576,0.848h13.752l-5.088,20.368    L240.003,115.193z M160.003,208.001c0-11.992,2.744-23.768,7.984-34.552c10.352,8.784,22.952,14.792,36.624,17.264    c0.112,0.024,0.224,0.048,0.328,0.064c1.96,0.344,3.936,0.608,5.936,0.808c0.32,0.032,0.632,0.088,0.952,0.112    c2.232,0.192,4.48,0.304,6.744,0.304h42.856c2.264,0,4.512-0.112,6.736-0.304c0.32-0.032,0.64-0.08,0.96-0.112    c1.992-0.192,3.96-0.464,5.912-0.808c0.128-0.024,0.248-0.048,0.376-0.072c13.648-2.472,26.232-8.48,36.584-17.288    c5.256,10.8,8,22.584,8,34.592c0.008,30.928-17.672,57.76-43.424,71.064c-2.376,1.224-4.8,2.328-7.264,3.296    c-0.44,0.176-0.888,0.32-1.336,0.488l-1,0.352c-0.04,0.016-0.088,0.024-0.136,0.04c-2.176,0.776-4.368,1.472-6.584,2.056h-0.008    c-0.688,0.176-1.376,0.352-2.096,0.52c-2.544,0.592-5.104,1.064-7.688,1.4l-1.12,0.168c-6.208,0.728-12.488,0.728-18.704,0    l-1.056-0.16c-2.584-0.336-5.144-0.816-7.688-1.4c-0.728-0.168-1.448-0.352-2.168-0.536c-2.256-0.592-4.488-1.296-6.696-2.088    l-0.896-0.312c-0.48-0.176-0.96-0.336-1.432-0.528c-2.464-0.968-4.888-2.072-7.264-3.296    C177.683,265.769,160.003,238.937,160.003,208.001z M293.715,299.913l-53.712,34.576l-54.096-34.776l9.072-4.272l3.184-1.064    c0.376,0.184,0.784,0.304,1.16,0.48c0.24,0.112,0.488,0.208,0.728,0.32c1.384,0.64,2.776,1.272,4.192,1.84    c0.16,0.064,0.312,0.144,0.472,0.208c0.664,0.264,1.344,0.496,2.032,0.728l0.36,0.128c0.6,0.216,1.192,0.44,1.792,0.648    c1.824,0.624,3.672,1.192,5.552,1.712c0.128,0.04,0.256,0.088,0.384,0.12c0.792,0.216,1.584,0.4,2.368,0.584    c2.664,0.656,5.368,1.184,8.12,1.608c0.152,0.024,0.296,0.064,0.448,0.088c0.008,0,0.024,0,0.032,0l0.904,0.144    c0.544,0.08,1.088,0.16,1.632,0.232c1.272,0.152,2.544,0.28,3.832,0.384c5.432,0.48,10.2,0.48,15.64,0    c1.256-0.104,2.504-0.224,3.744-0.368c0.576-0.08,1.144-0.16,1.712-0.248l0.936-0.144c0.152-0.024,0.304-0.064,0.456-0.088    c2.672-0.416,5.312-0.92,7.904-1.552c0.864-0.208,1.728-0.408,2.568-0.64c0.144-0.04,0.272-0.096,0.416-0.136    c1.864-0.52,3.712-1.08,5.528-1.704c0.608-0.208,1.2-0.432,1.8-0.648l0.352-0.128c0.688-0.232,1.368-0.464,2.016-0.728    c0.152-0.064,0.296-0.136,0.448-0.2c1.44-0.584,2.848-1.216,4.256-1.864c0.224-0.104,0.464-0.2,0.688-0.304    c0.384-0.184,0.792-0.304,1.176-0.488l0.168,0.072L293.715,299.913z M64.003,464.001v-91.688c0-9.256,5.408-17.776,13.784-21.72    l17.52-8.24l194.84,121.648H64.003z M320.355,464.001l-207.832-129.76l11.256-5.296l10.704-5.04l220.768,140.096H320.355z     M416.003,464.001h-30.888l-233.48-148.16l17.192-8.088l66.856,42.976c1.312,0.848,2.816,1.272,4.32,1.272    c1.504,0,3.008-0.424,4.328-1.272l66.56-42.792l91.336,42.648c8.368,3.944,13.776,12.472,13.776,21.728V464.001z" fill="#f70b5d"/>
	</g>
</g>
<g>
	<g>
		<rect x="320.003" y="392.001" width="48" height="16" fill="#f70b5d"/>
	</g>
</g>
<g>
	<g>
		<path d="M478.099,194.833c-1.512-1.8-3.744-2.832-6.096-2.832h-21.576l-21.984-14.656c-2.688-1.792-6.184-1.792-8.872,0    l-21.992,14.656h-21.576c-2.352,0-4.584,1.032-6.104,2.832c-1.52,1.8-2.176,4.168-1.792,6.488l8,48    c0.272,1.648,1.056,3.16,2.232,4.336l40,40c1.568,1.56,3.616,2.344,5.664,2.344c2.048,0,4.096-0.784,5.656-2.344l40-40    c1.176-1.176,1.96-2.696,2.232-4.336l8-48C480.284,199.001,479.628,196.633,478.099,194.833z M456.531,244.161l-32.528,32.528    l-32.528-32.528l-6.024-36.16h14.552c1.576,0,3.128-0.472,4.44-1.344l19.56-13.04l19.56,13.04c1.312,0.872,2.864,1.344,4.44,1.344    h14.552L456.531,244.161z" fill="#f70b5d"/>
	</g>
</g>
<g>
	<g>
		<path d="M110.099,194.833c-1.512-1.8-3.744-2.832-6.096-2.832H82.427l-21.984-14.656c-2.688-1.792-6.184-1.792-8.872,0    l-21.992,14.656H8.003c-2.352,0-4.584,1.032-6.104,2.832c-1.52,1.8-2.176,4.168-1.792,6.488l8,48c0.28,1.64,1.064,3.16,2.24,4.336    l40,40c1.56,1.56,3.608,2.344,5.656,2.344s4.096-0.784,5.656-2.344l40-40c1.176-1.176,1.96-2.696,2.232-4.336l8-48    C112.284,199.001,111.627,196.633,110.099,194.833z M88.531,244.161l-32.528,32.528l-32.528-32.528l-6.024-36.16h14.552    c1.576,0,3.128-0.472,4.44-1.344l19.56-13.04l19.56,13.04c1.312,0.872,2.864,1.344,4.44,1.344h14.552L88.531,244.161z" fill="#f70b5d"/>
	</g>
</g>
<g>
</g>
<g>
</g>
<g>
</g>
<g>
</g>
<g>
</g>
<g>
</g>
<g>
</g>
<g>
</g>
<g>
</g>
<g>
</g>
<g>
</g>
<g>
</g>
<g>
</g>
<g>
</g>
<g>
</g>
</svg>
