<?xml version="1.0" encoding="iso-8859-1"?>
<!-- Generator: Adobe Illustrator 19.0.0, SVG Export Plug-In . SVG Version: 6.00 Build 0)  -->
<svg xmlns="http://www.w3.org/2000/svg" xmlns:xlink="http://www.w3.org/1999/xlink" version="1.1" id="Capa_1" x="0px" y="0px" viewBox="0 0 496 496" style="enable-background:new 0 0 496 496;" xml:space="preserve" width="512px" height="512px">
<g>
	<g>
		<g>
			<path d="M447.82,390.192c-5.376-32.232-27.976-58.68-58.976-69.016l-20.84-6.944V224h-16v84.904l-32-10.664V288h-16v10.232     l-48,16v31.816l-80.888,24.272L190.78,480h-66.432c-1.736-3.472-4.344-10.816-4.344-24c0-20.208,13.544-34.224,13.68-34.368     l-5.68-5.632l-5.656-5.656C121.596,411.096,104.004,429,104.004,456c0,10.464,1.416,18.232,3.192,24H49.452l14.52-87.168     c4.4-26.376,22.888-48.008,48.256-56.472l71.776-23.928l40,13.336V336h16v-21.768l-48-16V288h-16v10.232l-32,10.664V224h-16     v90.232l-20.832,6.944c-31,10.336-53.6,36.784-58.976,69.016L30.556,496h434.888L447.82,390.192z M388.812,480     c1.776-5.768,3.192-13.536,3.192-24c0-27-17.592-44.904-18.344-45.656l-11.312,11.312c0.136,0.136,13.656,13.896,13.656,34.344     c0,13.272-2.64,20.624-4.312,24H206.948L192.9,381.68l79.104-23.728v-32.184l40-13.336l71.768,23.928     c25.368,8.456,43.856,30.096,48.256,56.472L446.556,480H388.812z" fill="#f70b5d"/>
			<path d="M147.54,215.552c4.08,14.04,11.616,26.912,22.24,37.536l31.192,31.2c7.552,7.552,17.6,11.712,28.288,11.712h37.488     c10.688,0,20.736-4.16,28.288-11.712l31.192-31.2c10.624-10.624,18.152-23.504,22.24-37.536     c19.936-2.256,35.536-19.024,35.536-39.552c0-13.128-6.448-24.704-16.248-32h0.248V24c0-13.232-10.768-24-24-24h-192     c-13.232,0-24,10.768-24,24v120h0.248c-9.8,7.296-16.248,18.872-16.248,32C112.004,196.528,127.604,213.296,147.54,215.552z      M336.004,190.864c0,19.232-7.496,37.312-21.088,50.912l-31.192,31.2c-4.536,4.528-10.56,7.024-16.976,7.024H229.26     c-6.416,0-12.448-2.496-16.976-7.024l-31.192-31.2c-13.592-13.6-21.088-31.68-21.088-50.912v-24.072     c14.616,7.616,42.104,17.208,88,17.208s73.384-9.592,88-17.208V190.864z M166.3,152h163.408c-11.904,6.432-37.048,16-81.704,16     S178.204,158.432,166.3,152z M368.004,176c0,10.552-6.896,19.44-16.376,22.64c0.224-2.568,0.376-5.16,0.376-7.776v-37.392     C361.292,156.784,368.004,165.584,368.004,176z M144.004,24c0-4.408,3.584-8,8-8h192c4.416,0,8,3.592,8,8v80h-208V24z      M144.004,120h208v16h-208V120z M144.004,153.472v37.392c0,2.616,0.152,5.208,0.376,7.784     c-9.48-3.208-16.376-12.096-16.376-22.648C128.004,165.584,134.716,156.784,144.004,153.472z" fill="#f70b5d"/>
			<rect x="224.004" y="448" width="16" height="16" fill="#f70b5d"/>
			<rect x="216.004" y="416" width="16" height="16" fill="#f70b5d"/>
			<rect x="208.004" y="384" width="16" height="16" fill="#f70b5d"/>
			<rect x="288.004" y="416" width="64" height="16" fill="#f70b5d"/>
		</g>
	</g>
</g>
<g>
</g>
<g>
</g>
<g>
</g>
<g>
</g>
<g>
</g>
<g>
</g>
<g>
</g>
<g>
</g>
<g>
</g>
<g>
</g>
<g>
</g>
<g>
</g>
<g>
</g>
<g>
</g>
<g>
</g>
</svg>
