<?xml version="1.0" encoding="iso-8859-1"?>
<!-- Generator: Adobe Illustrator 19.0.0, SVG Export Plug-In . SVG Version: 6.00 Build 0)  -->
<svg xmlns="http://www.w3.org/2000/svg" xmlns:xlink="http://www.w3.org/1999/xlink" version="1.1" id="Capa_1" x="0px" y="0px" viewBox="0 0 512 512" style="enable-background:new 0 0 512 512;" xml:space="preserve" width="512px" height="512px">
<g>
	<g>
		<path d="M134.998,271c-41.354,0-74.999,33.644-74.999,74.999c0,41.354,33.644,74.999,74.999,74.999    c41.354,0,74.999-33.644,74.999-74.999C209.996,304.644,176.352,271,134.998,271z M134.998,390.997    c-24.813,0-44.999-20.187-44.999-44.999s20.187-44.999,44.999-44.999s44.999,20.187,44.999,44.999S159.81,390.997,134.998,390.997    z" fill="#f70b5d"/>
	</g>
</g>
<g>
	<g>
		<path d="M487.91,350.998l22.981-85.208c0.086-0.319,0.162-0.64,0.226-0.964c2.655-13.272-0.744-26.887-9.325-37.353    c-8.581-10.467-21.266-16.472-34.8-16.472h-74.999v-74.999c0-8.271,6.729-15,15-15c8.284,0,15-6.716,15-15s-6.716-15-15-15    c-24.813,0-44.999,20.187-44.999,44.999v74.999h-35.288l-27.159-108.636c-0.723-2.892-0.791-2.088-20.282-41.361h5.73    c8.284,0,15-6.716,15-15c0-8.284-6.716-15-15-15c-20.846,0-154.583,0-182.601,0c-23.428,0-42.693,17.594-44.814,40.925    L41.509,248.706C15.94,273.285,0,307.814,0,345.998c0,74.438,60.56,134.998,134.998,134.998    c58.666,0,108.702-37.719,127.276-90.098h101.229c-0.988,4.848-1.509,9.964-1.509,15.1c0,41.354,33.644,74.999,74.999,74.999    s74.999-33.644,74.999-74.999C511.991,384.284,502.706,364.706,487.91,350.998z M295.783,211.001h-55.787v-89.998h33.287    L295.783,211.001z M87.456,74.645c0.707-7.777,7.129-13.642,14.938-13.642c18.308,0,128.591,0,143.33,0l15,29.999H134.998    c-8.284,0-15,6.716-15,15v105.836c-16.497,1.832-32.108,6.641-46.276,13.889L87.456,74.645z M209.996,121.002v89.998h-59.999    v-89.998H209.996z M134.998,450.996c-57.896,0-104.998-47.102-104.998-104.998S77.102,241,134.998,241    s104.998,47.102,104.998,104.998S192.894,450.996,134.998,450.996z M377.034,360.998H269.157c0.547-4.927,0.838-9.93,0.838-15    c0-42.366-19.623-80.23-50.25-104.998c30.068,0,220.599,0,247.247,0c4.512,0,8.74,2.001,11.6,5.49    c2.773,3.383,3.923,7.752,3.184,12.047L478.415,271h-163.42c-8.284,0-15,6.716-15,15s6.716,15,15,15h155.329l-9.174,34.014    c-7.586-2.589-15.706-4.015-24.158-4.015C412.509,330.999,390.731,342.794,377.034,360.998z M436.992,450.996    c-24.813,0-44.999-20.187-44.999-44.999s20.187-44.999,44.999-44.999c24.813,0,44.999,20.187,44.999,44.999    S461.805,450.996,436.992,450.996z" fill="#f70b5d"/>
	</g>
</g>
<g>
</g>
<g>
</g>
<g>
</g>
<g>
</g>
<g>
</g>
<g>
</g>
<g>
</g>
<g>
</g>
<g>
</g>
<g>
</g>
<g>
</g>
<g>
</g>
<g>
</g>
<g>
</g>
<g>
</g>
</svg>
