<?xml version="1.0" encoding="iso-8859-1"?>
<!-- Generator: Adobe Illustrator 16.0.0, SVG Export Plug-In . SVG Version: 6.00 Build 0)  -->
<!DOCTYPE svg PUBLIC "-//W3C//DTD SVG 1.1//EN" "http://www.w3.org/Graphics/SVG/1.1/DTD/svg11.dtd">
<svg xmlns="http://www.w3.org/2000/svg" xmlns:xlink="http://www.w3.org/1999/xlink" version="1.1" id="Capa_1" x="0px" y="0px" width="512px" height="512px" viewBox="0 0 459.781 459.781" style="enable-background:new 0 0 459.781 459.781;" xml:space="preserve">
<g>
	<g>
		<path d="M169.038,45.572c0,8.72,26.188,15.791,58.482,15.791c32.312,0,58.484-7.071,58.484-15.791    c0-5.985-12.307-11.187-30.453-13.866v10.876c0,11.373-23.821,11.948-28.595,11.948c-4.771,0-28.599-0.575-28.599-11.942V31.895    C180.844,34.628,169.038,39.723,169.038,45.572z" fill="#f70b5d"/>
		<path d="M204.043,6.838v35.851c0,3.775,10.511,6.831,23.478,6.831c12.976,0,23.479-3.056,23.479-6.831V6.838    C251,3.062,240.496,0,227.521,0C214.554,0,204.043,3.062,204.043,6.838z" fill="#f70b5d"/>
		<path d="M152.589,105.814l0.645,0.747c16.892,19.562,79.394,84.657,174.308,100.665l2.865,0.487l-3.543-16.092l-1.318-0.213    c-86.324-14.02-145.824-71.997-167.406-96.276l-2.561-2.875L152.589,105.814z" fill="#f70b5d"/>
		<path d="M157.294,84.486l0.621,0.735c16.068,19.228,75.432,83.216,164.589,99.27l2.905,0.517l-3.113-14.092l-1.258-0.249    c-81.736-16.24-138.223-71.471-158.719-94.465l-2.553-2.863L157.294,84.486z" fill="#f70b5d"/>
		<path d="M115.952,271.958l-4.024,18.273l3.939-2.412c42.617-26.229,85.983-78.552,98.26-93.973l1.36-1.701l-1.839-1.17    c-3.058-1.948-6.003-3.901-8.884-5.865l-1.507-1.026l-1.13,1.437c-10.143,12.864-46.279,57.094-85.561,86.004L115.952,271.958z" fill="#f70b5d"/>
		<path d="M147.856,127.271l0.666,0.746c17.707,19.993,83.296,86.438,184.065,101.943l2.833,0.444l-3.555-16.146l-1.334-0.202    c-91.714-14.046-154.39-73.065-177.078-97.786l-2.551-2.779L147.856,127.271z" fill="#f70b5d"/>
		<path d="M123.339,238.468l-5.29,24.013l4.358-3.535c34.392-27.867,65.62-65.902,74.38-76.904l1.28-1.609l-1.657-1.208    c-3.204-2.314-6.314-4.63-9.265-6.923l-1.537-1.192l-1.206,1.529c-8.74,11.086-32.127,39.644-60.592,65.417L123.339,238.468z" fill="#f70b5d"/>
		<path d="M110.131,298.419l-4.398,19.921l3.635-1.76c55.703-26.793,106.347-93.573,120.542-113.402l1.281-1.783l-1.908-1.078    c-2.338-1.318-4.63-2.645-6.893-3.977l-1.477-0.876l-1.062,1.354c-13.649,17.356-61.836,75.94-108.924,101.164L110.131,298.419z" fill="#f70b5d"/>
		<path d="M131.951,199.425l-6.209,28.158l4.697-4.568c23.289-22.658,42.046-45.566,49.022-54.367l1.203-1.507l-1.491-1.223    c-3.144-2.584-6.125-5.113-8.913-7.568l-1.551-1.367l-1.288,1.625c-6.091,7.717-18.749,23.229-35.093,40.413L131.951,199.425z" fill="#f70b5d"/>
		<path d="M134.642,187.217l4.987-5.574c11.108-12.403,19.344-22.57,23.261-27.523l1.122-1.42l-1.318-1.234    c-4.867-4.55-9.572-9.223-13.964-13.896l-2.553-2.699L134.642,187.217z" fill="#f70b5d"/>
		<path d="M163.917,54.427l-2.457,11.146l0.621,0.739c19.542,23.299,73.847,79.421,155.738,97.284l2.998,0.651l-3.166-14.345    l-1.198-0.284c-74.346-17.513-125.883-65.377-149.984-92.341L163.917,54.427z" fill="#f70b5d"/>
		<path d="M154.914,319.658l-1.657,1.21c-2.15,1.579-4.332,3.142-6.562,4.705l-1.561,1.098l1.052,1.587    c6.765,10.26,31.707,46.442,68.509,81.691l0.557,0.529l0.777,0.008c1.529,0.016,3.072,0.024,4.623,0.024    c1.972,0,3.976-0.017,5.978-0.044h5.856l-3.631-3.398c-38.804-36.275-65.531-74.779-72.811-85.711L154.914,319.658z" fill="#f70b5d"/>
		<path d="M205.91,86.354l0.904,0.748l1.082-0.449c9.249-3.783,19.422-9.626,30.24-17.364l5.306-3.791l-6.516,0.234    c-3.218,0.118-5.614,0.141-6.672,0.141c-0.92,0-2.906-0.022-5.504-0.101l-0.635-0.026l-0.517,0.356    c-7.82,5.274-15.298,9.576-22.217,12.796l-2.769,1.289l2.316,1.985C202.552,83.559,204.215,84.957,205.91,86.354z" fill="#f70b5d"/>
		<path d="M222.381,99.049l0.894,0.643l1.016-0.425c15.449-6.494,33.082-18.4,52.401-35.403l6.628-5.843l-8.479,2.48    c-5.357,1.565-11.79,2.825-19.14,3.753l-0.553,0.072l-0.437,0.353c-14.078,11.367-27.313,19.979-39.317,25.6l-2.929,1.374    l2.577,1.964C217.401,95.431,219.87,97.244,222.381,99.049z" fill="#f70b5d"/>
		<path d="M241.51,410.029l0.558,0.497l0.762-0.008c3.955-0.024,7.758-0.124,11.497-0.276l4.953-0.2l-3.755-3.242    c-45.016-38.893-76.374-83.815-84.917-96.651l-1.192-1.799l-1.679,1.37c-2.065,1.679-4.178,3.358-6.33,5.029l-1.437,1.114    l1.003,1.507C168.979,329.469,198.477,371.955,241.51,410.029z" fill="#f70b5d"/>
		<path d="M299.097,79.289c-17.231,15.425-33.346,27.062-47.889,34.598l-3.246,1.679l3.19,1.775    c2.821,1.575,5.718,3.108,8.664,4.614l0.841,0.433l0.862-0.387c12.823-5.753,27.183-15.214,42.699-28.112l0.921-0.768    l-3.542-16.071L299.097,79.289z" fill="#f70b5d"/>
		<path d="M240.42,111.058l0.89,0.545l0.95-0.425c16.719-7.522,35.878-21.188,56.913-40.617l0.821-0.764l-3.442-15.623l-2.512,2.419    c-22.526,21.566-43.217,36.994-61.517,45.871l-3.107,1.506l2.877,1.902C234.946,107.611,237.644,109.349,240.42,111.058z" fill="#f70b5d"/>
		<path d="M304.227,102.119c-11.577,9.269-22.586,16.683-32.688,22.024l-3.551,1.88l3.65,1.647c3.134,1.411,6.324,2.795,9.582,4.105    l0.766,0.314l0.77-0.329c8.139-3.597,16.987-8.728,26.301-15.268l1.065-0.755l-3.435-15.589L304.227,102.119z" fill="#f70b5d"/>
		<path d="M290.28,135.303l4.248,1.452c5.667,1.936,11.714,3.727,18.515,5.486l3.105,0.802l-4.54-20.562l-2.389,1.611    c-5.138,3.452-10.167,6.508-14.984,9.091L290.28,135.303z" fill="#f70b5d"/>
		<path d="M335.484,236.676c-10.651-1.494-20.149-3.298-29.026-5.489l-5.834-1.443l3.854,4.601    c8.035,9.614,21.039,24.662,37.289,41.781l4.861,5.114l-9.79-44.379L335.484,236.676z" fill="#f70b5d"/>
		<path d="M213.476,65.236l-6.011-0.675c-3.69-0.415-7.213-0.92-10.463-1.491l-0.676-0.126l-0.605,0.337    c-2.472,1.356-4.945,2.645-7.402,3.811l-2.584,1.214l2.064,1.978c1.495,1.431,3.04,2.883,4.641,4.358l0.923,0.848l1.158-0.479    c4.294-1.775,8.774-3.993,13.704-6.792L213.476,65.236z" fill="#f70b5d"/>
		<path d="M362.406,378.52l1.964-1.627l-2.072-1.479c-2.905-2.092-5.818-4.239-8.708-6.439l-1.688-1.278l-1.149,1.779    c-4.677,7.257-10.071,14.303-16.021,20.959l-6.02,6.716l8.259-3.606C349.711,387.965,357.838,382.298,362.406,378.52z" fill="#f70b5d"/>
		<path d="M268.5,409.4l0.79-0.076c3.742-0.309,7.313-0.705,10.796-1.138l4.628-0.565l-3.631-2.913    c-51.369-41.152-86.784-91.991-96.416-106.578l-1.254-1.919l-1.697,1.534c-1.986,1.804-4.025,3.575-6.107,5.374l-1.31,1.126    l0.95,1.443c9.245,14.014,43.238,62.908,92.639,103.203L268.5,409.4z" fill="#f70b5d"/>
		<path d="M124.423,340.004l-1.617,0.966c-1.868,1.118-3.783,2.192-5.714,3.282l-3.086,1.739l1.114,1.755    c2.859,4.469,18.37,28.244,43.274,56.364l0.429,0.489l0.635,0.141c4.13,0.857,8.548,1.671,13.141,2.38l5.536,0.854l-3.783-4.115    c-26.667-29.074-44.16-55.011-48.884-62.26L124.423,340.004z" fill="#f70b5d"/>
		<path d="M187.879,409.016l0.719,0.068c3.949,0.368,8.009,0.689,12.249,0.93l5.109,0.288l-3.604-3.63    c-32.915-33.138-55.28-65.643-61.35-74.812l-1.072-1.639l-2.466,1.623c-1.954,1.274-3.917,2.561-5.929,3.819l-1.695,1.074    l1.094,1.671c5.492,8.403,25.8,38.331,56.451,70.086L187.879,409.016z" fill="#f70b5d"/>
		<path d="M314.017,401.594l0.766-0.412c8.512-7.422,20.814-19.673,31.174-35.919l0.949-1.495l-1.378-1.094    c-2.36-1.88-4.701-3.779-7.025-5.727l-1.715-1.427l-1.19,1.884c-14.495,22.802-32.328,37.934-41.665,44.927l-6.709,5.029    l8.256-1.519C302.011,404.623,308.254,403.197,314.017,401.594z" fill="#f70b5d"/>
		<path d="M93.456,374.059l0.667,0.75c0.539,0.604,13.627,15.08,47.891,25.467l6.306,1.903l-4.224-5.045    c-20.999-25.087-33.334-44.482-34.674-46.614l-0.966-1.539l-1.619,0.85c-1.805,0.954-3.679,1.871-5.55,2.801l-3.476,1.739    L93.456,374.059z" fill="#f70b5d"/>
		<path d="M348.777,292.456c-31.419-31.831-54.217-60.088-58.465-65.422l-0.368-0.471l-0.581-0.18    c-5.852-1.826-11.807-3.893-17.709-6.142l-6.933-2.651l4.725,5.73c14.779,17.924,44.723,52.676,79.274,84.022l4.564,4.139    l-4.111-18.626L348.777,292.456z" fill="#f70b5d"/>
		<path d="M355.077,321.39c-50.902-43.958-93.799-97.828-101.877-108.181l-1.848-2.373l-1.435,2.649    c-1.126,2.078-2.629,4.779-4.568,8.015l-0.682,1.146l0.813,1.058c5.386,6.945,54.177,69.196,110.324,115.502l4.393,3.635    l-4.637-21.03L355.077,321.39z" fill="#f70b5d"/>
		<path d="M362.338,352.539l-0.561-0.437c-55.587-43.309-105.119-104.005-118.965-121.573l-1.695-2.148l-1.494,2.301    c-1.379,2.132-2.897,4.367-4.524,6.724l-0.822,1.187l0.89,1.134c10.652,13.554,66.769,83.443,126.952,127.753l4.207,3.09    L362.338,352.539z" fill="#f70b5d"/>
		<path d="M262.589,377.076l-2.035,1.383l1.791,1.684c2.269,2.115,4.568,4.231,6.917,6.335l1.134,1.019l1.271-0.857    c6.288-4.208,28.092-20.058,45.079-46.591l0.891-1.379l-1.194-1.118c-2.164-2.003-4.296-4.003-6.412-6.026l-1.688-1.596    l-1.286,1.932C289.836,357.521,268.665,372.953,262.589,377.076z" fill="#f70b5d"/>
		<path d="M232.028,245.945l-1.595-2.004l-1.521,2.048c-11.65,15.701-24.988,30.741-39.64,44.728l-1.176,1.126l0.89,1.366    c0.735,1.126,1.813,2.741,3.154,4.729l1.13,1.672l1.633-1.175c7.568-5.418,26.81-20.574,42.082-44.174l0.773-1.194l-0.897-1.105    C234.978,249.633,233.363,247.616,232.028,245.945z" fill="#f70b5d"/>
		<path d="M289.13,313.042l0.874-1.318l-1.102-1.143c-2.108-2.147-4.172-4.296-6.196-6.428l-1.671-1.763l-1.37,1.995    c-17.625,25.771-38.588,40.655-44.595,44.603l-1.911,1.259l1.53,1.699c2.433,2.7,4.934,5.414,7.526,8.159l13.152,13.966    l-0.934-1.523c0.092,0.101,0.184,0.188,0.284,0.28l1.11,1.091l1.311-0.83c1.065-0.673,26.433-16.919,45.652-46.317l0.877-1.351    l-1.149-1.134c-2.116-2.076-4.229-4.148-6.288-6.224l-1.671-1.688l-1.335,1.964c-17.439,25.663-38.347,40.675-44.578,44.814    l-3.314-5.405C251.337,353.682,272.472,338.24,289.13,313.042z" fill="#f70b5d"/>
		<path d="M104.078,325.85l-4.555,20.67l3.737-1.947c87.735-45.969,130.127-114.228,141.031-134.05l0.982-1.779l-3.427-1.713    c-1.182-0.593-2.376-1.184-3.543-1.789l-1.519-0.802l-0.989,1.407c-10.833,15.395-68.046,93.496-130.779,119.616L104.078,325.85z" fill="#f70b5d"/>
		<path d="M287.003,399.555c8.038-5.703,28.408-21.665,44.025-46.747l0.89-1.411l-1.271-1.113c-2.208-1.908-4.396-3.823-6.557-5.771    l-1.703-1.534l-1.25,1.915c-16.122,24.582-35.923,39.975-43.689,45.448l-2.071,1.455l1.932,1.643    c2.4,2.052,4.849,4.063,7.329,6.056l1.158,0.934L287.003,399.555z" fill="#f70b5d"/>
		<path d="M243.679,260.256l-1.672-2.008l-1.463,2.164c-15.707,23.275-34.634,38.007-42.035,43.269l-1.611,1.142l1.146,1.604    c1.625,2.268,3.424,4.736,5.394,7.39l1.122,1.503l1.553-1.066c6.023-4.104,26.967-19.496,43.537-44.719l0.813-1.227l-0.958-1.126    C247.425,264.748,245.481,262.436,243.679,260.256z" fill="#f70b5d"/>
		<path d="M269.466,289.879l-1.663-1.84l-1.41,2.048c-17.356,25.339-38.131,40.247-44.092,44.219l-1.83,1.214l1.415,1.679    c2.136,2.553,4.34,5.149,6.658,7.803l1.561-1.15l0.369,0.598c0.253-0.152,25.691-16.066,45.256-45.521l0.846-1.29l-1.042-1.135    C273.453,294.251,271.438,292.043,269.466,289.879z" fill="#f70b5d"/>
		<path d="M256.45,275.252l-1.663-1.916l-1.443,2.101c-16.358,23.996-35.682,38.607-43.234,43.776l-1.721,1.162l1.274,1.659    c1.781,2.301,3.683,4.697,5.661,7.157l1.116,1.391l1.491-0.974c4.316-2.813,26.766-18.218,44.646-45.204l0.825-1.254l-0.993-1.122    C260.337,279.7,258.365,277.443,256.45,275.252z" fill="#f70b5d"/>
		<path d="M231.902,459.781c12.962,0,28.603-3.065,28.603-6.828v-35.858h-57.209v35.858    C203.303,456.716,218.942,459.781,231.902,459.781z" fill="#f70b5d"/>
	</g>
</g>
<g>
</g>
<g>
</g>
<g>
</g>
<g>
</g>
<g>
</g>
<g>
</g>
<g>
</g>
<g>
</g>
<g>
</g>
<g>
</g>
<g>
</g>
<g>
</g>
<g>
</g>
<g>
</g>
<g>
</g>
</svg>
